<svg width="22" height="22" viewBox="0 0 22 22" fill="none" xmlns="http://www.w3.org/2000/svg">
<path d="M4.40002 18.1999C4.86119 17.6834 7.02107 15.3066 7.65403 15.3066H14.3464C15.2636 15.3066 17.136 17.2768 17.6 17.9713M20.6 10.9999C20.6 16.3018 16.302 20.5999 11 20.5999C5.69809 20.5999 1.40002 16.3018 1.40002 10.9999C1.40002 5.69797 5.69809 1.3999 11 1.3999C16.302 1.3999 20.6 5.69797 20.6 10.9999ZM14.4389 7.72786C14.4389 5.89635 12.8927 4.3999 11.0003 4.3999C9.10794 4.3999 7.56176 5.89635 7.56176 7.72786C7.56176 9.55937 9.10794 11.0558 11.0003 11.0558C12.8927 11.0558 14.4389 9.55937 14.4389 7.72786Z" stroke="white" stroke-width="2"/>
</svg>
