<svg width="20" height="26" viewBox="0 0 20 26" fill="none" xmlns="http://www.w3.org/2000/svg">
<path d="M1.11877 19.9625L0.321087 19.3595L0.321087 19.3595L1.11877 19.9625ZM2.42712 16.2351L1.42712 16.2229V16.2351H2.42712ZM2.45458 13.9815L3.45458 13.9937V13.9815H2.45458ZM18.8882 19.9806L19.6978 19.3937L19.6978 19.3937L18.8882 19.9806ZM17.6291 16.2351L16.6291 16.2223V16.2351H17.6291ZM17.6566 14.0932L18.6566 14.106V14.0932H17.6566ZM14.6 21.0251C14.6 20.4728 14.1523 20.0251 13.6 20.0251C13.0477 20.0251 12.6 20.4728 12.6 21.0251H14.6ZM7.4 21.0251C7.4 20.4728 6.95229 20.0251 6.4 20.0251C5.84772 20.0251 5.4 20.4728 5.4 21.0251H7.4ZM0.0718066 6.63239C-0.133698 7.14502 0.115275 7.72718 0.627902 7.93268C1.14053 8.13819 1.72269 7.88922 1.92819 7.37659L0.0718066 6.63239ZM4.64253 4.28039C5.12876 4.01846 5.31059 3.41197 5.04867 2.92574C4.78674 2.43952 4.18025 2.25769 3.69402 2.51961L4.64253 4.28039ZM16.293 2.53444C15.8096 2.26736 15.2012 2.44274 14.9341 2.92615C14.6671 3.40957 14.8424 4.01796 15.3258 4.28504L16.293 2.53444ZM18.0679 7.35684C18.2679 7.87164 18.8474 8.12682 19.3622 7.9268C19.877 7.72679 20.1321 7.14732 19.9321 6.63253L18.0679 7.35684ZM1.91645 20.5656C2.67079 19.5679 3.42712 18.0696 3.42712 16.2351H1.42712C1.42712 17.5112 0.898267 18.596 0.321087 19.3595L1.91645 20.5656ZM3.42705 16.2473L3.45451 13.9937L1.45466 13.9693L1.4272 16.2229L3.42705 16.2473ZM19.6978 19.3937C19.1452 18.6313 18.6291 17.534 18.6291 16.2351H16.6291C16.6291 18.0682 17.3539 19.568 18.0786 20.5676L19.6978 19.3937ZM18.629 16.2479L18.6565 14.106L16.6566 14.0804L16.6292 16.2223L18.629 16.2479ZM18.6566 14.0932C18.6566 9.29661 14.7854 5.4001 10 5.4001V7.4001C13.6718 7.4001 16.6566 10.3922 16.6566 14.0932H18.6566ZM18.43 22.0251C19.1898 22.0251 19.6667 21.4895 19.859 21.0356C20.0507 20.5831 20.0897 19.9342 19.6978 19.3937L18.0786 20.5676C17.9625 20.4075 18.0067 20.2808 18.0174 20.2554C18.0288 20.2286 18.1387 20.0251 18.43 20.0251V22.0251ZM3.45458 13.9815C3.45458 10.3422 6.38955 7.4001 10 7.4001V5.4001C5.27602 5.4001 1.45458 9.24662 1.45458 13.9815H3.45458ZM1.57109 20.0251C1.70569 20.0251 1.81669 20.0769 1.88642 20.133C1.94916 20.1834 1.97456 20.232 1.98443 20.2561C1.99471 20.2811 2.00238 20.3133 1.99933 20.3575C1.99613 20.4039 1.97867 20.4833 1.91645 20.5656L0.321087 19.3595C-0.088161 19.9008 -0.0528362 20.5602 0.134505 21.0162C0.322151 21.4729 0.798687 22.0251 1.57109 22.0251V20.0251ZM18.43 20.0251H1.57109V22.0251H18.43V20.0251ZM12.6 21.0251C12.6 22.277 11.4977 23.4001 10 23.4001V25.4001C12.4787 25.4001 14.6 23.5011 14.6 21.0251H12.6ZM10 23.4001C8.50229 23.4001 7.4 22.277 7.4 21.0251H5.4C5.4 23.5011 7.52126 25.4001 10 25.4001V23.4001ZM11.4 4.0001C11.4 4.7733 10.7732 5.4001 10 5.4001V7.4001C11.8778 7.4001 13.4 5.87787 13.4 4.0001H11.4ZM10 5.4001C9.2268 5.4001 8.6 4.7733 8.6 4.0001H6.6C6.6 5.87787 8.12223 7.4001 10 7.4001V5.4001ZM8.6 4.0001C8.6 3.2269 9.2268 2.6001 10 2.6001V0.600098C8.12223 0.600098 6.6 2.12233 6.6 4.0001H8.6ZM10 2.6001C10.7732 2.6001 11.4 3.2269 11.4 4.0001H13.4C13.4 2.12233 11.8778 0.600098 10 0.600098V2.6001ZM1.92819 7.37659C2.46301 6.04249 3.41497 4.94166 4.64253 4.28039L3.69402 2.51961C2.02696 3.41764 0.769051 4.89313 0.0718066 6.63239L1.92819 7.37659ZM15.3258 4.28504C16.5894 4.98311 17.5652 6.06298 18.0679 7.35684L19.9321 6.63253C19.2476 4.87063 17.936 3.44214 16.293 2.53444L15.3258 4.28504Z" fill="#ff6168"/>
</svg>
