<svg width="10" height="12" viewBox="0 0 18 22" fill="none" xmlns="http://www.w3.org/2000/svg">
<path d="M10.8793 17.8662C10.8793 19.376 12.1032 20.5999 13.613 20.5999C15.1228 20.5999 16.3467 19.376 16.3467 17.8662C16.3467 16.3564 15.1228 15.1325 13.613 15.1325C12.1032 15.1325 10.8793 16.3564 10.8793 17.8662ZM10.8793 17.8662H5.65369C3.44463 17.8662 1.6538 16.0755 1.65369 13.8664L1.65308 1.3999M10.3668 6.93138H1.65308M16.3467 6.93138C16.3467 8.44116 15.1228 9.66509 13.613 9.66509C12.1032 9.66509 10.8793 8.44116 10.8793 6.93138C10.8793 5.4216 12.1032 4.19768 13.613 4.19768C15.1228 4.19768 16.3467 5.4216 16.3467 6.93138Z" stroke="#282828" stroke-width="2" stroke-linecap="round"/>
</svg>
