<svg width="18" height="22" viewBox="0 0 18 22" fill="none" xmlns="http://www.w3.org/2000/svg">
<path d="M12.0002 1.3999V4.9999C12.0002 5.66264 12.5374 6.1999 13.2002 6.1999H16.8002M5.40017 6.1999H7.80017M5.40017 9.7999H12.6002M5.40017 13.3999H12.6002M15.0002 3.1999C14.4661 2.72204 13.9119 2.15528 13.562 1.78718C13.3292 1.54224 13.0075 1.3999 12.6696 1.3999H3.59989C2.27441 1.3999 1.1999 2.47441 1.19989 3.79989L1.1998 18.1998C1.19979 19.5253 2.2743 20.5998 3.59979 20.5998L14.3998 20.5999C15.7253 20.5999 16.7998 19.5254 16.7998 18.2L16.8002 5.47773C16.8002 5.1709 16.6831 4.87594 16.4702 4.65503C16.0764 4.24655 15.4188 3.57442 15.0002 3.1999Z" stroke="white" stroke-width="2" stroke-linecap="round" stroke-linejoin="round"/>
</svg>
